HIERARCHY
ROOT pelvis
{
  OFFSET 0 100 0
  CHANNELS 6 Xposition Yposition Zposition Zrotation Xrotation Yrotation
  JOINT pelvis_right_femur
  {
    OFFSET -10.78128 -3.44521 -0.5502486
    CHANNELS 3 Zrotation Xrotation Yrotation
    JOINT right_femur_tibia
    {
      OFFSET -0.8047443 -44.0398 -0.1307829
      CHANNELS 3 Zrotation Xrotation Yrotation
      JOINT right_tibia_foot
      {
        OFFSET 3.006224 -47.83518 -5
        CHANNELS 3 Zrotation Xrotation Yrotation
        End Site
        {
          OFFSET 0 -5 15
        }
      }
    }
  }
  JOINT pelvis_left_femur
  {
    OFFSET 10.78128 -3.44521 -0.5502486
    CHANNELS 3 Zrotation Xrotation Yrotation
    JOINT left_femur_tibia
    {
      OFFSET 0.8047443 -44.0398 -0.1307829
      CHANNELS 3 Zrotation Xrotation Yrotation
      JOINT left_tibia_foot
      {
        OFFSET -4.370144 -48.10324 -4.275266
        CHANNELS 3 Zrotation Xrotation Yrotation
        End Site
        {
          OFFSET 0 -5 15
        }
      }
    }
  }
  JOINT pelvis_spine1
  {
    OFFSET 0 6.468898 -3.129235
    CHANNELS 3 Zrotation Xrotation Yrotation
    JOINT spine1
    {
      OFFSET 0 23.15396 4.99043
      CHANNELS 3 Zrotation Xrotation Yrotation
      JOINT spine2
      {
        OFFSET 0 20.79997 -5.064912
        CHANNELS 3 Zrotation Xrotation Yrotation
        JOINT neck
        {
          OFFSET 0 14.38658 9.616178
          CHANNELS 3 Zrotation Xrotation Yrotation
          End Site
          {
            OFFSET 0 20 0
          }
        }
      }
      JOINT right_manubrium
      {
        OFFSET -5.722621 16.35077 3.967754
        CHANNELS 3 Zrotation Xrotation Yrotation
        JOINT right_clavicle
        {
          OFFSET -13.16364 1.694482 -4.693211
          CHANNELS 3 Zrotation Xrotation Yrotation
          JOINT right_humerus
          {
            OFFSET -28.5034 -0.3100689 -2.792744
            CHANNELS 3 Zrotation Xrotation Yrotation
            JOINT right_radius
            {
              OFFSET -25.15693 0.02248979 -1.271978
              CHANNELS 3 Zrotation Xrotation Yrotation
              End Site
              {
                OFFSET -15 0 0
              }
            }
          }
        }
      }
      JOINT left_manubrium
      {
        OFFSET 5.722621 16.35077 3.967754
        CHANNELS 3 Zrotation Xrotation Yrotation
        JOINT left_clavicle
        {
          OFFSET 13.16364 1.694482 -4.693211
          CHANNELS 3 Zrotation Xrotation Yrotation
          JOINT left_humerus
          {
            OFFSET 29.39168 -1.063119 -2.237045
            CHANNELS 3 Zrotation Xrotation Yrotation
            JOINT left_radius
            {
              OFFSET 24.59957 -0.9528479 0.9047498
              CHANNELS 3 Zrotation Xrotation Yrotation
              End Site
              {
                OFFSET 15 -0 -0
              }
            }
          }
        }
      }
    }
  }
}
MOTION
Frames: 20
Frame Time: 0.0416666666667
17.5663 101.8592 234.3386 1.563773 -7.449685 -0.9922544 -0.08928083 12.00869 6.813911 -4.797226e-09 36.2066 3.191089e-09 2.454944 -11.59101 -4.799495 -2.779603 -16.22773 -8.117944 1.985486e-09 19.68291 1.024972e-09 -5.254587 -10.04257 20.72878 -2.523447 0.2884175 7.493929 -1.016558 9.528084 -3.325307 2.600799 23.22421 4.927461 1.513244 -16.82564 8.058733 3.132781 -19.90747 10.44853 81.87513 27.60182 -6.749399 -9.065428e-10 -3.041991e-10 21.50433 -24.18216 13.17865 13.57684 3.914824 -14.90443 -2.673974 -93.64073 24.66848 23.58729 2.58894e-10 -6.54966e-11 -8.605741 -0.9026235 7.988995 16.19971
18.36592 102.3126 240.2019 1.686582 -7.788107 -0.6821597 -0.4491192 9.702925 6.894968 -4.754343e-09 42.77733 3.063308e-09 2.321486 -8.890146 -5.315808 -3.899418 -12.62605 -9.329475 1.886245e-09 20.69865 6.720759e-10 -5.022767 -10.72382 20.65461 -2.761541 0.2709897 6.862649 -1.06568 9.489143 -3.408749 2.677292 23.40822 5.13427 1.63585 -16.75226 8.313411 3.480276 -18.94195 10.28242 82.27623 27.73513 -7.56249 -1.032624e-09 -2.846236e-10 19.96591 -23.54678 12.82525 12.94793 3.780616 -14.7393 -2.801227 -92.78005 25.33071 22.25274 4.160438e-10 -3.380541e-11 -8.305528 -0.8054732 8.16 16.11367
19.1536 103.114 245.9424 1.852951 -7.980882 -0.1619064 -0.7745734 6.18201 6.838674 -4.465012e-09 48.64013 2.757462e-09 2.338356 -6.286179 -5.948954 -4.997964 -8.085987 -10.54538 1.834333e-09 20.62133 2.835081e-10 -4.715026 -11.97644 20.52047 -3.054494 0.2461938 6.125612 -1.040582 9.411178 -3.653442 2.744762 23.63661 5.404708 1.759008 -16.745 8.644609 3.826666 -17.91495 10.10465 83.18569 27.97375 -8.872844 -1.155396e-09 -2.116074e-10 18.2798 -22.94222 12.55555 12.31251 3.815732 -14.8252 -2.954871 -91.8974 26.03619 20.41277 5.59244e-10 1.598683e-11 -8.743225 -0.6321383 8.369415 15.94778
19.91315 104.1067 251.498 1.954276 -7.772271 0.4981318 -0.8268583 1.682405 6.555854 -3.771e-09 51.75816 2.149424e-09 2.133776 -4.283197 -6.412652 -5.835124 -3.19665 -11.60334 1.723846e-09 19.72339 -4.012951e-11 -4.21818 -13.41586 20.19311 -3.272708 0.1560181 5.358019 -0.8581993 9.288226 -4.078566 2.726922 23.6553 5.673699 1.882127 -16.90911 8.89062 4.085939 -16.9589 9.92978 83.86572 28.30162 -10.46977 -1.192803e-09 -1.093205e-10 16.50759 -21.97369 12.28192 11.5084 3.99478 -15.20513 -3.095879 -90.50947 26.56634 18.27434 6.369508e-10 6.249532e-11 -9.952471 -0.2184385 8.746142 15.38603
20.64132 105.0367 256.9508 2.022388 -7.377256 1.251478 -0.7268607 -3.122108 6.081335 -2.724688e-09 51.79434 1.307878e-09 1.990499 -3.127751 -6.808672 -6.302841 1.339709 -12.21499 1.648764e-09 17.89553 -3.361073e-10 -3.76545 -15.02258 19.75181 -3.417474 0.0667352 4.687212 -0.6014849 9.169416 -4.607902 2.681698 23.61203 5.890043 1.954608 -17.09089 9.076066 4.156219 -16.22826 9.789534 84.7868 28.50667 -12.24256 -1.172395e-09 2.681308e-11 15.00007 -21.23703 12.17943 10.85424 4.360689 -15.89233 -3.261397 -89.1499 26.77039 16.00275 6.534838e-10 1.085034e-10 -11.91759 0.3207678 9.109099 14.62503
21.32774 105.6856 262.3321 2.008447 -6.730152 2.01612 -0.4470969 -7.98419 5.442106 -1.570389e-09 48.38289 4.772765e-10 1.789379 -2.907924 -7.033709 -6.405831 5.24647 -12.38935 1.574144e-09 15.33833 -5.640683e-10 -3.339894 -16.57772 19.12732 -3.447758 -0.03731261 4.131922 -0.2604107 9.023373 -5.20707 2.587153 23.37414 6.021137 1.970658 -17.27072 9.130592 4.025403 -15.70672 9.661648 85.39321 28.57692 -13.95437 -1.075747e-09 1.779776e-10 13.74744 -20.53567 12.18304 10.26275 4.860344 -16.79253 -3.413147 -87.46693 26.59578 13.66117 5.99633e-10 1.495119e-10 -14.47052 0.9968746 9.448867 13.59282
21.95301 105.8994 267.7433 1.937634 -6.04999 2.740284 -0.04641867 -12.78098 4.735905 -4.641727e-10 42.48981 -1.814786e-10 1.682764 -3.353747 -7.271867 -6.254714 8.637298 -12.10867 1.557649e-09 13.06227 -8.213115e-10 -3.162971 -18.02731 18.33171 -3.373327 -0.1027695 3.694508 0.1136127 8.899716 -5.848512 2.494793 23.11098 6.07396 1.929431 -17.38351 9.118339 3.738291 -15.29965 9.570254 86.19029 28.47138 -15.77215 -9.472152e-10 3.211646e-10 12.6471 -20.10324 12.38778 9.794052 5.460434 -17.89987 -3.587576 -85.85362 26.1103 11.21983 5.138307e-10 1.781277e-10 -17.55286 1.71981 9.668997 12.47959
22.5054 105.6182 273.2535 1.822133 -5.40815 3.378535 0.4275566 -17.1283 4.06137 4.558894e-10 35.18594 -5.714353e-10 1.637682 -4.256526 -7.505684 -5.947946 11.36409 -11.50515 1.585637e-09 11.43864 -1.086473e-09 -3.223671 -19.22457 17.44175 -3.213246 -0.1314878 3.383817 0.4847192 8.806642 -6.469885 2.411561 22.84893 6.059835 1.849342 -17.4376 9.0512 3.362128 -14.9933 9.517872 87.05519 28.23711 -17.53261 -8.051959e-10 4.378046e-10 11.71526 -19.88509 12.73279 9.434652 6.075921 -19.07483 -3.760991 -84.43923 25.421 8.912655 4.130229e-10 1.936052e-10 -20.78244 2.418906 9.773924 11.39673
22.97172 104.9198 278.8067 1.650088 -4.773767 3.911978 0.9454605 -21.00678 3.475704 1.20333e-09 28.09639 -7.810322e-10 1.387155 -5.083856 -7.62194 -5.645424 13.74307 -10.93567 1.560539e-09 10.64902 -1.328551e-09 -3.279529 -20.05799 16.53111 -3.000798 -0.1796624 3.105183 0.8501449 8.728773 -7.033349 2.310869 22.50747 6.016156 1.783647 -17.51689 8.918586 3.006212 -14.68764 9.472959 87.50552 28.02033 -19.0798 -6.477898e-10 5.150627e-10 10.74891 -19.45097 12.97275 8.969127 6.585415 -20.13726 -3.908177 -82.91376 24.6554 6.871192 3.133072e-10 1.987945e-10 -23.65074 3.143038 9.911549 10.25825
23.35317 103.9466 284.4276 1.494048 -4.383155 4.352117 1.445446 -23.95703 3.090899 1.801902e-09 22.5334 -9.013306e-10 1.138801 -5.622685 -7.777779 -5.413505 15.6044 -10.37995 1.558646e-09 11.45639 -1.601507e-09 -3.512734 -20.45583 15.71685 -2.770448 -0.1907235 2.902756 1.134608 8.721815 -7.473868 2.248536 22.29049 5.95778 1.734075 -17.56468 8.800894 2.733607 -14.36852 9.469225 88.06217 27.79083 -20.44438 -5.298206e-10 5.34202e-10 9.815022 -19.12128 13.20489 8.544489 6.936216 -21.0149 -4.057167 -81.83483 23.99429 5.248498 2.504736e-10 1.809765e-10 -25.91916 3.730264 9.987615 9.365827
23.66915 102.9161 290.0962 1.372636 -4.239995 4.716818 1.889268 -25.67453 2.93617 2.215353e-09 19.43936 -9.98773e-10 0.8089253 -5.688011 -7.893162 -5.298253 16.82377 -10.00474 1.548754e-09 13.67754 -1.857479e-09 -3.776759 -20.35642 15.1204 -2.555 -0.1893805 2.770456 1.314575 8.783704 -7.739445 2.216434 22.18122 5.901518 1.723118 -17.61696 8.69967 2.594661 -14.06544 9.498086 88.49146 27.62342 -21.42685 -4.569708e-10 4.944978e-10 8.973644 -18.78201 13.31791 8.138878 7.061871 -21.57244 -4.190063 -81.17679 23.55142 4.263117 2.294178e-10 1.416314e-10 -27.20655 4.15594 10.06671 8.751714
23.95684 102.0956 295.861 1.357934 -4.535284 5.055233 2.196825 -26.00757 3.057043 2.478506e-09 19.99255 -1.185697e-09 0.5729834 -5.018672 -8.116366 -5.379284 17.49061 -9.825161 1.599394e-09 17.7662 -2.165515e-09 -4.195059 -19.80897 14.8402 -2.397526 -0.1321573 2.709858 1.333883 8.961645 -7.79996 2.262844 22.36258 5.872385 1.756182 -17.63294 8.697966 2.63944 -13.74269 9.581433 89.32332 27.46599 -22.1353 -4.754771e-10 3.934825e-10 8.222633 -18.69916 13.39335 7.861988 6.941982 -21.78969 -4.343768 -81.36912 23.49801 3.925329 2.833161e-10 7.34835e-11 -27.40413 4.313765 10.09883 8.630479
24.23731 101.7263 301.6605 1.340342 -4.977478 5.346086 2.560887 -24.91555 3.382669 2.553585e-09 22.38898 -1.364613e-09 0.05916995 -4.04802 -8.14876 -5.48292 17.21612 -9.816644 1.621827e-09 23.47458 -2.419486e-09 -4.552686 -18.57103 14.77173 -2.203171 -0.09481051 2.757492 1.279849 9.218007 -7.684215 2.305918 22.55623 5.822612 1.836295 -17.72627 8.646848 2.796655 -13.51152 9.711299 89.73127 27.43938 -22.36812 -5.086906e-10 2.186655e-10 7.606892 -18.41868 13.28551 7.532902 6.569309 -21.68542 -4.466447 -81.82809 23.61265 4.408207 3.595696e-10 -2.316284e-11 -26.54519 4.383972 10.21506 8.662007
24.52431 101.9125 307.502 1.302815 -5.524447 5.538877 3.061499 -22.29311 3.895154 2.399246e-09 24.98862 -1.400996e-09 -0.5879059 -3.400621 -8.024562 -5.452323 15.53978 -9.715063 1.700869e-09 30.82405 -2.617023e-09 -5.034382 -16.63602 14.87872 -1.924364 -0.04290656 3.030949 1.176307 9.564022 -7.429994 2.348857 22.80595 5.724536 1.929058 -17.90067 8.538839 3.000128 -13.50929 9.938101 90.04168 27.51761 -22.2292 -5.463025e-10 -3.424951e-11 7.357625 -18.19975 13.19846 7.30946 6.03019 -21.40808 -4.543709 -82.90948 23.82855 5.782012 4.352936e-10 -1.529854e-10 -25.03249 4.315898 10.32497 8.937823
24.83171 102.6277 313.2782 1.189071 -5.900904 5.579063 3.615325 -18.37781 4.391977 1.957028e-09 26.66253 -1.201582e-09 -1.5382 -3.361631 -7.513887 -5.205037 12.40052 -9.603491 1.663737e-09 37.69658 -2.575122e-09 -5.290747 -14.23998 15.16052 -1.584375 -0.05406714 3.497603 1.070211 9.909178 -7.059023 2.327169 22.86562 5.567307 2.023408 -18.18991 8.293159 3.157616 -13.87042 10.20164 89.47939 27.7455 -21.41383 -5.268808e-10 -3.106721e-10 7.657941 -17.78921 12.97237 7.148861 5.402313 -20.94094 -4.520039 -84.0313 23.92807 8.059583 4.635733e-10 -2.794352e-10 -22.91164 4.247161 10.53226 9.159921
25.17342 103.7077 318.9704 1.044199 -6.1446 5.448407 4.103542 -13.82474 4.762706 1.343858e-09 26.987 -8.164544e-10 -2.476784 -3.985154 -6.826503 -4.760842 8.307605 -9.348028 1.529176e-09 43.07601 -2.325096e-09 -5.427932 -11.84757 15.55655 -1.240436 -0.08769981 4.103434 0.9570827 10.22689 -6.638681 2.274588 22.82703 5.369087 2.084391 -18.48907 7.983776 3.21056 -14.54872 10.47763 88.5337 27.95579 -20.16454 -4.666488e-10 -5.576008e-10 8.499759 -17.52179 12.76808 7.190011 4.830989 -20.43889 -4.433173 -85.28277 23.85811 10.78136 4.471968e-10 -3.851403e-10 -20.69953 4.153028 10.73497 9.370353
25.56693 104.9864 324.6401 0.920914 -6.380658 5.152683 4.458487 -8.934312 5.025667 6.54147e-10 26.47755 -3.348282e-10 -3.173449 -5.105024 -6.157839 -4.176213 3.638733 -8.906413 1.365009e-09 46.96173 -1.953298e-09 -5.583027 -9.690185 16.08128 -0.9381488 -0.1015545 4.814148 0.8107341 10.53538 -6.194735 2.233775 22.84367 5.157221 2.105477 -18.74292 7.695342 3.175074 -15.47781 10.77198 87.79064 28.05949 -18.72626 -3.98578e-10 -7.576659e-10 9.821062 -17.6642 12.7065 7.524844 4.366246 -19.97852 -4.32514 -86.96178 23.66607 13.71313 4.073174e-10 -4.685249e-10 -18.60469 3.972924 10.86425 9.703499
26.03557 106.201 330.191 0.7938416 -6.316467 4.729231 4.569403 -4.397852 5.000485 -5.198681e-11 24.8815 1.841888e-10 -3.824477 -6.606999 -5.278085 -3.510678 -1.076005 -8.551195 9.36568e-10 46.46517 -1.250793e-09 -5.225662 -8.242589 16.69683 -0.7625111 -0.2077267 5.477562 0.6781085 10.71277 -5.764937 2.134911 22.63694 4.954962 2.092302 -18.97293 7.37313 2.97479 -16.6979 10.96664 86.34676 28.05799 -16.80439 -2.694663e-10 -8.201813e-10 11.64591 -17.83312 12.50282 8.029392 4.09452 -19.5072 -4.159604 -88.15421 23.22762 16.63881 3.000014e-10 -4.779184e-10 -16.61219 3.910006 11.09175 9.748888
26.62053 107.0329 335.6697 0.7583084 -6.149544 4.251758 4.358691 -0.3812578 4.770389 -7.043603e-10 22.67434 6.821861e-10 -4.029003 -8.436373 -4.452456 -2.811679 -5.610668 -8.163333 5.713796e-10 41.6779 -5.026349e-10 -4.608453 -7.767353 17.45594 -0.7696716 -0.3315405 6.103727 0.5120442 10.78896 -5.367325 2.046948 22.45258 4.79006 2.025646 -19.08573 7.139444 2.621887 -18.16963 11.08161 85.11494 27.84131 -14.70804 -1.412103e-10 -7.278478e-10 14.01607 -18.52597 12.38734 8.91427 4.088645 -19.12137 -3.985245 -89.44515 22.65408 19.34197 1.497158e-10 -4.131092e-10 -15.01416 3.811396 11.26628 9.800375
27.34129 107.3353 341.0636 0.7735624 -5.907175 3.764613 3.969121 3.071395 4.4241 -1.271813e-09 20.51382 1.107492e-09 -4.067102 -10.21592 -3.627547 -2.168701 -9.700424 -7.867744 3.204254e-10 34.32897 1.705102e-10 -3.735499 -7.905791 18.28397 -0.8942675 -0.4911997 6.641212 0.3381191 10.80353 -5.006501 1.956376 22.25409 4.662087 1.94471 -19.15446 6.958098 2.191482 -19.72604 11.12586 83.95542 27.49468 -12.57679 -1.728817e-11 -5.370065e-10 16.55725 -19.37837 12.22914 9.924794 4.227439 -18.78652 -3.820602 -90.60824 22.00047 21.80805 -2.286867e-11 -3.024305e-10 -13.61625 3.764367 11.47726 9.747914
